<?xml version="1.0" encoding="UTF-8"?>
<svg width="17px" height="16px" viewBox="0 0 17 16" version="1.1" xmlns="http://www.w3.org/2000/svg" xmlns:xlink="http://www.w3.org/1999/xlink">
    <title>SkySlope Forms_favicon</title>
    <g id="✅-Homepage" stroke="none" stroke-width="1" fill="none" fill-rule="evenodd">
        <g id="Login_menu" transform="translate(-54.000000, -92.000000)" fill="#0059DA">
            <g id="Dropdown-/-Container-2" transform="translate(32.000000, 32.000000)">
                <g id="Group-2" transform="translate(22.833345, 56.000000)">
                    <g id="Group-7" transform="translate(0.000000, 4.000007)">
                        <path d="M1.7554963,0.873660599 C6.58270334,-0.963586814 12.9527862,0.544630578 14.7927292,1.34029724 C15.3881795,1.59779621 15.5076226,1.92679414 15.4601599,2.17540387 C15.4066961,2.45549497 15.1113938,2.69104362 14.6020439,2.66360573 C12.7855274,2.56579207 8.24627373,2.19263679 3.83541659,3.85299807 C1.06656462,4.89525273 1.1116847,6.91907778 1.1116847,6.91907778 C1.1116847,6.91907778 -1.77529459,2.2174753 1.7554963,0.873660599" id="Fill-1"></path>
                        <path d="M3.12096607,8.27636112 C4.50354681,5.49791391 11.8743263,5.26310335 14.0562963,5.38373379 C14.669493,5.41765408 14.9205416,5.64104021 14.9611369,5.98104538 C15.0006731,6.31209714 14.7179505,6.54536733 14.1423325,6.66599776 C12.9461048,6.91685387 8.14810064,7.77805056 6.97363067,9.76651122 C5.6394433,12.0252752 8.45055924,15.7888228 8.45055924,15.7888228 C8.45055924,15.7888228 1.40913067,11.7165267 3.12096607,8.27636112" id="Fill-4"></path>
                    </g>
                </g>
            </g>
        </g>
    </g>
</svg>